<svg xmlns="http://www.w3.org/2000/svg" viewBox="0 0 69.59 69.59"><rect width="69.59" height="69.59" rx="13.05" ry="13.05" style="fill:#e60012"/><path d="M25.27 30.76c1.98 0 3.58-1.6 3.58-3.58s-1.6-3.58-3.58-3.58-3.58 1.6-3.58 3.58 1.6 3.58 3.58 3.58m28.56 13.31V25.52c0-5.39-4.37-9.76-9.76-9.76h-5.89c-.14 0-.25.11-.25.25v37.54c0 .15.12.28.28.28h5.86c5.39 0 9.76-4.37 9.76-9.76m-8.37-3.52c-2.13 0-3.85-1.72-3.85-3.85s1.72-3.85 3.85-3.85 3.85 1.72 3.85 3.85-1.72 3.85-3.85 3.85M25.52 53.83h8.32c.15 0 .28-.13.28-.28V16.04a.28.28 0 0 0-.28-.28h-8.32c-5.39 0-9.76 4.37-9.76 9.76v18.55c0 5.39 4.37 9.76 9.76 9.76m-6.69-28.31c0-1.79.7-3.47 1.96-4.73a6.65 6.65 0 0 1 4.73-1.96h5.53v31.93h-5.53c-1.79 0-3.47-.7-4.73-1.96a6.65 6.65 0 0 1-1.96-4.73z" style="fill:#fff"/></svg>