<svg xmlns="http://www.w3.org/2000/svg" viewBox="0 0 374 224"><g data-name="レイヤー 2"><g data-name="レイヤー 1"><path fill="#fff" opacity=".17" d="M0 0h374v224H0z"/><path fill="#e60012" d="M122 47h130v130H122z"/><path fill="none" d="M122 47h130v130H122z"/><path data-name="mark" d="m145.76 131.4 3.62 4.87h1.44V129h-1.48v4.79l-3.58-4.79h-1.47v7.29h1.47Zm35.58-2.4h-6.17v1.55h2.33v5.74h1.57v-5.74h2.27Zm-.45 24.77H184V140h-3.07Zm-16-22.35 3.62 4.87H170V129h-1.5v4.79l-3.59-4.79h-1.47v7.29h1.48Zm6.94 18.58-2.91-10h-2.45l-2.89 9.94-2.65-9.94h-3l3.89 13.75h3.3l2.57-9.06 2.55 9.06h3.32l3.92-13.75h-3ZM150 145.4c-2-.33-3.27-.7-3.27-1.62 0-1.07 1.43-1.48 3.35-1.48a11.77 11.77 0 0 1 4.21.95l1-2.38a15.33 15.33 0 0 0-5.33-1.06c-3 0-6.13 1.45-6.13 4.13 0 2.18 1.54 3.29 5.48 4 2.78.48 4.31.74 4.27 1.94 0 .66-.54 1.76-3.67 1.76a9.58 9.58 0 0 1-4.91-1.29l-1.3 2.35a13.36 13.36 0 0 0 6 1.46c4.38 0 6.69-1.51 6.69-4.38 0-1.66-.56-3.4-6.38-4.35m7.93-16.43h-1.62v7.29h1.62Zm47 7.29V129h-1.48v4.79l-3.6-4.79h-1.47v7.29h1.48v-4.89l3.62 4.87Zm-12.58-1.35h-4.19v-1.71H192v-1.32h-3.87v-1.57h4.19V129h-5.67v7.29h5.67Zm38.79 17.18h.63v1.65h.4v-1.67h.62v-.39h-1.65Zm-4.69-23.36a3.89 3.89 0 1 0 3.88 3.89 3.89 3.89 0 0 0-3.88-3.89m0 6.16a2.27 2.27 0 1 1 2.27-2.27 2.27 2.27 0 0 1-2.27 2.27m8.42 16.81-.52 1.49-.51-1.49h-.57v2h.36v-1.57l.54 1.56h.36l.54-1.56v1.57h.36v-2Zm-7.88-6.31h-6.42V140h-2.85v13.75h2.85v-5.48H227v5.48h2.85V140H227Zm-39.64-2.5h4.4v10.83h2.95v-10.83H199V140h-11.69Zm21.21-.31a4.42 4.42 0 0 1 3.78 2.13l2.24-1.94a7.34 7.34 0 1 0 0 8.18L212.3 149a4.42 4.42 0 0 1-3.78 2.13 4.28 4.28 0 1 1 0-8.56m5.59-13.57h-3v7.29h3a3.65 3.65 0 1 0 0-7.29m.07 5.76h-1.59v-4.23h1.59a2.12 2.12 0 0 1 0 4.23m-50.83-65h-10.74A12.59 12.59 0 0 0 140 82.36v23.93a12.6 12.6 0 0 0 12.59 12.6h10.74a.36.36 0 0 0 .36-.36v-48.4a.36.36 0 0 0-.34-.36Zm-3.6 45.16h-7.14a8.64 8.64 0 0 1-8.63-8.64V82.36a8.64 8.64 0 0 1 8.63-8.63h7.14Zm-7.47-35a4.62 4.62 0 1 1-4.61 4.61 4.61 4.61 0 0 1 4.61-4.64Zm24.26-10.12h-7.6a.32.32 0 0 0-.32.32v48.44a.36.36 0 0 0 .36.36h7.56a12.6 12.6 0 0 0 12.6-12.6V82.36a12.6 12.6 0 0 0-12.6-12.59Zm1.8 32a5 5 0 1 1 5-5 5 5 0 0 1-5 4.95Zm19.07 17.14v-8.45c.87-.72 4.17-3.55 7.66-6.55 3.14-2.7 6.27-5.41 9.47-8 2.41-2 7-5.61 7.13-9.17.17-4.19-2.8-6.91-7.24-6.91a13.08 13.08 0 0 0-7.63 3.07l-4.29 3.66-7-7.53c5.91-6.62 12.25-10 18.87-10 14.1-.35 24.72 15.36 14 27.68a106.15 106.15 0 0 1-12.85 11.87H234v10.34Z" fill="#fff"/></g></g></svg>